<svg width="64" height="100" viewBox="0 0 64 100" fill="none" xmlns="http://www.w3.org/2000/svg">
<path d="M15.4883 0.276962C6.21094 1.95665 0 9.63243 0 19.4176C0 21.4098 0.3125 24.2809 0.585938 24.8082C0.839844 25.2574 1.75781 25.5504 2.28516 25.3551C3.18359 25.0231 3.35938 24.4371 3.10547 22.4254C2.8125 20.0816 2.98828 16.7223 3.49609 14.7301C4.92188 9.16368 9.12109 4.96446 14.8438 3.38243C16.7969 2.83556 20.8984 2.87462 22.9102 3.46056C24.6875 3.96837 26.3867 4.78868 27.9883 5.90196L29.1211 6.70274L28.2422 7.05431C27.7539 7.23009 26.5039 7.56212 25.4492 7.77696C22.9883 8.26524 22.4609 8.81212 23.1445 10.1207C23.5352 10.8824 24.1602 10.9996 26.1133 10.6285C29.5898 9.96446 32.9102 8.40196 35.625 6.11681C36.7188 5.17931 39.1406 3.9879 40.9375 3.46056C43.1445 2.83556 47.0898 2.83556 49.2969 3.46056C53.6328 4.71056 57.1484 7.54259 59.0625 11.3512C60.4883 14.2027 60.8008 15.6871 60.8203 19.5152C60.8398 25.1402 59.707 29.3395 55.8203 38.2066L54.4141 41.3902H31.9336H9.45312L8.75 39.8277C8.20312 38.6168 7.91016 38.2262 7.5 38.0699C6.75781 37.777 5.95703 38.1285 5.66406 38.8707C5.41016 39.4762 5.44922 39.652 6.62109 42.191C7.55859 44.2418 7.73438 44.3199 11.0352 44.3199H13.8281L13.7305 45.5309C13.6523 46.6051 13.7109 46.8981 14.1992 47.8356C14.6289 48.6754 15 49.0465 15.8203 49.5348C16.4062 49.8863 17.0898 50.1793 17.3242 50.1793C17.7734 50.1793 17.793 50.2184 17.7344 51.6637L17.6758 53.1676L16.8359 53.402C15.625 53.7731 14.668 54.5934 14.1406 55.7262C13.1641 57.8356 13.8477 60.0816 15.8203 61.2535C16.4062 61.6051 17.0898 61.8981 17.3242 61.8981C17.7734 61.8981 17.793 61.9371 17.7344 63.3824L17.6758 64.8863L16.8359 65.1207C15.625 65.4918 14.668 66.3121 14.1406 67.4449C13.1641 69.5543 13.8477 71.8004 15.8203 72.9918C16.4062 73.3238 17.0898 73.6168 17.3242 73.6168C17.7734 73.6168 17.793 73.6559 17.7344 75.1012L17.6758 76.6051L16.8359 76.8395C15.625 77.2106 14.668 78.0309 14.1406 79.1637C13.1641 81.2731 13.8477 83.5191 15.8203 84.691C16.4062 85.0426 17.0703 85.3356 17.3242 85.3356C17.7344 85.3356 17.7734 85.4332 17.7734 86.1949C17.7734 86.6637 17.8906 87.7184 18.0469 88.4996C19.8047 97.6402 29.8047 102.601 38.2031 98.4996C42.6758 96.3121 45.6641 91.8395 46.0352 86.7418C46.1328 85.4723 46.1914 85.3356 46.5625 85.3356C46.7969 85.3356 47.4609 85.0426 48.0469 84.691C51.3086 82.7379 50.6641 77.9137 47.0312 76.8395L46.1914 76.6051L46.1328 75.1012C46.0742 73.6559 46.0938 73.6168 46.543 73.6168C46.7773 73.6168 47.4609 73.3238 48.0469 72.9723C51.3086 71.0191 50.6641 66.1949 47.0312 65.1207L46.1914 64.8863L46.1328 63.3824C46.0742 61.9371 46.0938 61.8981 46.543 61.8981C46.7773 61.8981 47.4609 61.6051 48.0469 61.2535C51.3086 59.3004 50.6641 54.4762 47.0312 53.402L46.1914 53.1676L46.1328 51.6637C46.0742 50.2184 46.0938 50.1793 46.543 50.1793C46.7773 50.1793 47.4609 49.8863 48.0469 49.5348C48.8672 49.0465 49.2383 48.6754 49.668 47.8356C50.1562 46.8981 50.2148 46.6051 50.1367 45.5309L50.0391 44.3199H52.8516C55.6445 44.3199 55.6641 44.3199 56.2305 43.7731C56.8164 43.2262 58.9648 38.6168 60.6641 34.2418C64.1211 25.277 64.7461 18.1481 62.5977 12.0934C59.6289 3.77306 50.8008 -1.26601 41.9141 0.276962C39.0234 0.784775 37.1484 1.54649 34.4531 3.30431C33.1445 4.16368 32.832 4.28087 31.9336 4.28087C31.0352 4.28087 30.7227 4.16368 29.4141 3.30431C28.5938 2.77696 27.5 2.1129 26.9922 1.85899C23.7305 0.2379 19.1992 -0.406631 15.4883 0.276962ZM46.4648 44.6129C47.3633 45.0621 47.5195 45.902 46.8555 46.7418L46.4648 47.2496H31.9727H17.5L17.0508 46.8199C16.3086 46.1168 16.5039 45.0816 17.4805 44.5543C17.7539 44.3981 22.1289 44.3395 31.8945 44.3199C43.8281 44.3199 45.9961 44.359 46.4648 44.6129ZM43.1641 51.6441V53.109H31.9336H20.7031V51.6441V50.1793H31.9336H43.1641V51.6441ZM46.4648 56.3316C47.3633 56.7809 47.5195 57.6207 46.8555 58.4606L46.4648 58.9684H31.9727H17.5L17.0508 58.5387C16.3086 57.8356 16.5039 56.8004 17.4805 56.2731C17.7539 56.1168 22.1289 56.0582 31.8945 56.0387C43.8281 56.0387 45.9961 56.0777 46.4648 56.3316ZM43.1641 63.3629V64.8277H31.9336H20.7031V63.3629V61.8981H31.9336H43.1641V63.3629ZM46.4648 68.0504C47.3633 68.4996 47.5195 69.3395 46.8555 70.1793L46.4648 70.6871H31.9727H17.5L17.0508 70.2574C16.3086 69.5543 16.5039 68.5191 17.4805 67.9918C17.7539 67.8356 22.1289 67.777 31.8945 67.7574C43.8281 67.7574 45.9961 67.7965 46.4648 68.0504ZM43.1641 75.0816V76.5465H31.9336H20.7031V75.0816V73.6168H31.9336H43.1641V75.0816ZM46.4648 79.7691C47.3633 80.2184 47.5195 81.0582 46.8555 81.8981L46.4648 82.4059H42.2656C38.9648 82.4059 37.9492 82.4645 37.5195 82.6988C36.6211 83.1481 36.4648 83.9879 37.1289 84.8277C37.5195 85.3356 37.5391 85.3356 40.3711 85.3356H43.2227L43.1055 86.7418C42.6953 91.566 39.3164 95.4918 34.5508 96.6832C31.5234 97.4645 28.3984 96.8981 25.6836 95.0816C22.8125 93.1481 21.0547 90.1988 20.7617 86.7418L20.6445 85.3356H26.6211H32.5977L32.9883 84.8277C33.6523 83.9879 33.4961 83.1481 32.5977 82.6988C32.1484 82.4645 30.7812 82.4059 24.7852 82.4059C17.5781 82.4059 17.5 82.4059 17.0508 81.9762C16.3086 81.2731 16.5039 80.2379 17.4805 79.7106C17.7539 79.5543 22.1289 79.4957 31.8945 79.4762C43.8281 79.4762 45.9961 79.5152 46.4648 79.7691Z" fill="#BAD980"/>
</svg>
