<svg width="80" height="99" viewBox="0 0 80 99" fill="none" xmlns="http://www.w3.org/2000/svg">
<path d="M39.7868 47.7163C36.7722 47.7163 34.3306 50.1569 34.3306 53.1702C34.3306 56.1835 36.7722 58.6241 39.7868 58.6241C42.8013 58.6241 45.2429 56.1835 45.2429 53.1702C45.2429 50.1569 42.8013 47.7163 39.7868 47.7163ZM39.7868 55.8972C38.2863 55.8972 37.0587 54.6701 37.0587 53.1702C37.0587 51.6704 38.2863 50.4433 39.7868 50.4433C41.2872 50.4433 42.5148 51.6704 42.5148 53.1702C42.5148 54.6701 41.2872 55.8972 39.7868 55.8972Z" fill="#BAD980" stroke="#BAD980" stroke-width="0.5"/>
<path d="M79.3443 29.9622C79.3443 18.8226 75.2658 8.33743 67.859 0.429248C67.4635 0.00656956 66.836 -0.116143 66.3177 0.115649C65.7857 0.34744 65.4583 0.892832 65.5129 1.46549C65.6493 3.16984 65.7038 4.6833 65.7038 6.10132C65.7038 19.6407 61.0797 31.9256 53.2774 39.2066C48.9943 36.6842 44.5611 35.4434 39.8006 35.4434C35.0401 35.4434 30.6069 36.6705 26.3238 39.2066C18.5215 31.9256 13.8973 19.6407 13.8973 6.10132C13.8973 4.6833 13.9655 3.16984 14.0883 1.46549C14.1292 0.892832 13.8018 0.34744 13.2835 0.115649C12.7515 -0.116143 12.1377 0.00656956 11.7421 0.429248C4.33537 8.33743 0.256865 18.8362 0.256865 29.9622C0.256865 40.3656 3.87159 50.3053 10.4736 58.0363C2.08469 75.1616 0.338708 95.8046 0.256865 96.6909C0.175022 97.4544 0.843405 98.1771 1.62091 98.1635H16.6254C17.3075 98.1635 17.8803 97.659 17.9758 96.9909C18.0031 96.8136 20.4175 79.9337 28.0016 69.8031C31.439 71.0984 35.2174 72.2573 39.8142 72.2573C44.4111 72.2573 48.1895 71.0984 51.6269 69.8031C59.1973 79.9201 61.6253 96.8136 61.6526 96.9909C61.7481 97.659 62.321 98.1635 63.003 98.1635H78.0075C78.785 98.1771 79.4398 97.4544 79.3716 96.6909C79.3034 95.8046 77.5574 75.1616 69.1549 58.0363C75.7432 50.2917 79.3716 40.3656 79.3716 29.9622H79.3443ZM76.4662 95.4365H64.1352C63.4122 91.1688 60.5068 76.4841 53.1137 67.3079C52.7454 66.8443 52.1179 66.6807 51.5587 66.8852C47.221 68.5487 43.9064 69.5167 39.7733 69.5167C35.6402 69.5167 32.3256 68.5487 27.9879 66.8852C27.4287 66.6671 26.8012 66.8443 26.4329 67.3079C19.0534 76.4841 16.1344 91.1688 15.4114 95.4365H3.08044C3.65334 90.2962 6.05406 72.6937 13.2699 58.4453C13.529 57.9408 13.4472 57.3409 13.0653 56.9182C6.53148 49.5827 2.9304 40.0111 2.9304 29.9622C2.9304 20.8814 5.80853 12.2642 11.1147 5.3105C10.8828 20.1452 16.2299 34.1481 25.2189 41.9199C25.6691 42.3153 26.3374 42.3699 26.8421 42.0426C30.9616 39.4384 35.1765 38.1704 39.746 38.1704C44.3156 38.1704 48.5441 39.4384 52.6499 42.0426C53.1546 42.3699 53.823 42.3153 54.2731 41.9199C63.2622 34.1481 68.6093 20.1452 68.3774 5.3105C73.6835 12.2642 76.5617 20.8814 76.5617 29.9622C76.5617 40.0111 72.9606 49.5827 66.4268 56.9182C66.0585 57.3409 65.9766 57.9408 66.2222 58.4453C73.438 72.6937 75.8387 90.2962 76.4116 95.4365H76.4662Z" fill="#BAD980" stroke="#BAD980" stroke-width="0.5"/>
</svg>
