<svg width="100" height="100" viewBox="0 0 100 100" fill="none" xmlns="http://www.w3.org/2000/svg">
<g clip-path="url(#clip0_481_4335)">
<path d="M33.5937 7.42177C36.2518 8.17143 38.555 7.83871 41.1567 7.06853C46.2513 5.60088 51.9231 6.80403 56.4697 9.31386C61.251 12.0824 64.465 16.6608 66.0766 21.8749C67.0733 25.6262 67.0074 29.4565 66.0156 33.203C66.2613 33.1962 66.507 33.1894 66.7602 33.1824C72.0805 33.0795 76.5483 34.5284 80.4809 38.2201C82.8028 40.631 84.9057 44.2964 84.9739 47.7218C84.9696 47.8935 84.9653 48.0652 84.9609 48.2421C85.1628 48.2375 85.1628 48.2375 85.3688 48.2328C89.9293 48.1425 93.3886 48.5249 96.8849 51.7348C99.4198 54.3239 100.059 57.4531 100.057 60.9436C100.058 61.2611 100.059 61.5786 100.061 61.896C100.064 62.7552 100.065 63.6144 100.065 64.4736C100.066 65.0115 100.066 65.5494 100.067 66.0872C100.071 67.967 100.073 69.8467 100.072 71.7264C100.072 73.4733 100.076 75.2202 100.082 76.9671C100.088 78.4711 100.09 79.9751 100.089 81.4791C100.089 82.3755 100.09 83.2719 100.095 84.1683C100.098 85.0124 100.098 85.8564 100.095 86.7005C100.095 87.0084 100.096 87.3163 100.098 87.6242C100.124 91.2072 99.1538 94.1517 96.6339 96.7383C93.8945 99.412 90.8358 100.09 87.1186 100.076C86.7851 100.076 86.4515 100.078 86.1179 100.079C85.2057 100.082 84.2936 100.081 83.3814 100.079C82.3959 100.078 81.4104 100.081 80.4249 100.083C78.4959 100.086 76.567 100.086 74.6381 100.085C73.0698 100.085 71.5016 100.085 69.9334 100.086C69.5983 100.086 69.5983 100.086 69.2565 100.086C68.8026 100.087 68.3488 100.087 67.8949 100.087C63.641 100.09 59.387 100.089 55.1331 100.087C51.2437 100.085 47.3543 100.087 43.4648 100.092C39.4684 100.097 35.472 100.099 31.4756 100.097C29.233 100.097 26.9905 100.097 24.7479 100.1C22.8388 100.103 20.9298 100.103 19.0208 100.1C18.0474 100.098 17.074 100.098 16.1006 100.101C15.2083 100.104 14.3161 100.103 13.4238 100.099C13.1022 100.098 12.7806 100.099 12.459 100.101C8.84098 100.122 5.87801 99.1828 3.26153 96.6338C0.624011 93.9314 -0.0907419 90.92 -0.0789555 87.2318C-0.0800714 86.9143 -0.0814323 86.5967 -0.0830176 86.2792C-0.0865022 85.4224 -0.0862959 84.5658 -0.0851783 83.709C-0.0845718 82.9912 -0.0857661 82.2734 -0.0869425 81.5556C-0.0896797 79.8609 -0.089386 78.1662 -0.0871571 76.4714C-0.0849157 74.7288 -0.0876649 72.9862 -0.0929 71.2436C-0.0972404 69.7421 -0.0985201 68.2406 -0.0973763 66.739C-0.096721 65.8446 -0.0971713 64.9502 -0.10055 64.0558C-0.103592 63.2141 -0.102776 62.3725 -0.0991228 61.5308C-0.0984083 61.2238 -0.0989942 60.9169 -0.101054 60.6099C-0.122991 57.0674 0.862994 54.0928 3.34011 51.493C5.8007 49.2479 8.59086 48.3027 11.8896 48.1322C12.0427 48.1238 12.1958 48.1154 12.3535 48.1067C12.7278 48.0861 13.1022 48.0664 13.4765 48.0468C13.3559 47.8383 13.2353 47.6298 13.1111 47.4151C11.1941 44.0628 9.7405 40.6708 8.52047 37.0116C8.46985 36.8601 8.41923 36.7085 8.36708 36.5523C6.79837 31.831 5.82652 26.9815 7.22652 22.0702C7.29299 21.831 7.35946 21.5918 7.42794 21.3454C9.09262 15.8902 12.9198 11.4562 17.9094 8.74728C22.7208 6.2422 28.4217 5.93942 33.5937 7.42177ZM15.4296 15.039C15.2786 15.1754 15.1275 15.3119 14.9719 15.4525C13.7486 16.5962 12.9233 17.8792 12.1093 19.3358C11.9673 19.5836 11.9673 19.5836 11.8225 19.8363C9.88261 23.4322 9.52369 28.1412 10.6422 32.0556C10.7397 32.3732 10.8382 32.6906 10.9375 33.0077C11.0335 33.3231 11.0335 33.3231 11.1315 33.6448C12.4711 37.9981 14.1276 42.1094 16.4736 46.0279C17.6873 48.07 18.1728 49.9365 18.2479 52.2895C18.2619 52.6772 18.276 53.065 18.2902 53.4528C18.2974 53.6561 18.3046 53.8595 18.3121 54.069C18.1632 69.2716 18.1632 69.2716 23.6328 82.6171C24.306 83.0985 24.5282 83.2043 25.3784 83.1908C26.9542 82.9051 28.0027 81.7172 28.9062 80.4687C29.7766 78.9706 30.3629 77.3998 30.8227 75.7323C30.8608 75.5979 30.8988 75.4635 30.9381 75.325C31.8533 71.723 31.7088 67.9047 31.715 64.2201C31.7345 57.2591 31.7345 57.2591 33.5937 54.6874C34.5115 53.7953 35.2978 53.3694 36.5722 53.2714C37.8463 53.3563 38.7103 53.6614 39.5996 54.6019C41.5524 57.0307 41.623 60.3633 41.6427 63.3353C41.6482 63.8031 41.6538 64.2709 41.6595 64.7387C41.6675 65.4663 41.6747 66.1938 41.6799 66.9214C41.7189 71.9706 41.9153 78.0275 45.6138 81.9602C46.5778 82.8622 47.3351 83.1824 48.6328 83.203C49.9632 82.6771 50.7181 81.3662 51.3054 80.1253C54.3289 72.6787 54.7478 63.7903 54.9286 55.8387C54.9321 55.6901 54.9357 55.5415 54.9393 55.3883C54.956 54.6731 54.9697 53.9581 54.9771 53.2428C55.0244 50.2092 55.78 47.931 57.2776 45.3231C61.0347 38.7559 64.5909 30.493 62.6953 22.8515C61.2422 18.0612 58.0925 14.2954 53.7109 11.914C49.6657 9.88868 45.529 9.63627 41.1865 10.7421C37.7663 11.611 34.877 11.5611 31.4888 10.5842C25.6849 8.91584 19.6716 10.976 15.4296 15.039ZM64.7465 37.3418C64.3666 37.7993 64.206 38.2461 64.0014 38.8045C63.8754 39.1405 63.8754 39.1405 63.7467 39.4833C63.6576 39.723 63.5684 39.9628 63.4765 40.2099C62.4857 42.8201 61.3663 45.3812 59.853 47.7376C58.5315 49.8073 58.3165 51.7602 58.2932 54.1652C58.2851 54.9454 58.2664 55.7254 58.2489 56.5055C58.2455 56.6644 58.2421 56.8234 58.2386 56.9872C57.7608 78.339 57.7608 78.339 52.1484 84.9608C50.8475 86.1007 49.5084 86.6172 47.7813 86.5706C45.7239 86.3819 44.0912 85.3749 42.6635 83.911C41.2076 82.1186 40.2476 79.9512 39.5752 77.7587C39.5089 77.5454 39.5089 77.5454 39.4412 77.3278C38.3761 73.5827 38.3885 69.8104 38.3767 65.9495C38.5031 61.3389 38.5031 61.3389 37.1093 57.0312C36.916 56.9022 36.7226 56.7733 36.5234 56.6405C34.6019 58.9596 35.0616 62.5446 35.0463 65.3563C34.9933 72.9028 34.9933 72.9028 34.143 76.3061C34.1015 76.4755 34.0599 76.6449 34.017 76.8194C33.1892 80.0208 31.6631 83.745 28.7109 85.5056C26.9727 86.4045 25.1705 86.9335 23.2299 86.328C20.8384 85.279 19.5355 82.898 18.605 80.5818C15.1762 71.5314 15.1993 61.3059 14.8437 51.7577C14.1571 51.7488 13.4705 51.7434 12.7838 51.7386C12.5907 51.7361 12.3976 51.7335 12.1987 51.7309C9.57661 51.7173 7.60919 52.4703 5.66479 54.2663C4.2329 55.769 3.49431 57.6226 3.48684 59.679C3.48612 59.8074 3.48541 59.9357 3.48467 60.068C3.48252 60.4978 3.48176 60.9276 3.48102 61.3574C3.47979 61.6658 3.47849 61.9742 3.47713 62.2825C3.47302 63.2952 3.47099 64.3078 3.46905 65.3205C3.46826 65.6697 3.46745 66.0188 3.46664 66.368C3.46292 68.0091 3.46014 69.6502 3.45851 71.2914C3.4566 73.1827 3.45146 75.0739 3.44357 76.9652C3.43766 78.4289 3.43478 79.8925 3.43414 81.3562C3.43368 82.2295 3.43194 83.1027 3.42701 83.976C3.42245 84.7986 3.42165 85.621 3.42365 86.4436C3.42375 86.7441 3.42252 87.0447 3.41983 87.3452C3.39859 89.8553 3.78051 91.8287 5.46871 93.7499C5.56665 93.8682 5.66459 93.9866 5.76549 94.1085C6.83426 95.2995 8.38252 96.1795 9.9609 96.4843C10.4075 96.5028 10.8546 96.5098 11.3016 96.5105C11.4371 96.5109 11.5726 96.5114 11.7121 96.5119C12.1682 96.5132 12.6243 96.5131 13.0805 96.513C13.4099 96.5137 13.7394 96.5144 14.0688 96.5152C14.9759 96.5172 15.883 96.5179 16.7901 96.5184C17.7678 96.5192 18.7455 96.521 19.7231 96.5227C22.0851 96.5266 24.4471 96.5286 26.8091 96.5303C27.9213 96.5312 29.0335 96.5322 30.1456 96.5332C33.8426 96.5366 37.5395 96.5394 41.2364 96.5408C42.1959 96.5412 43.1554 96.5415 44.1149 96.5419C44.3534 96.542 44.5918 96.5421 44.8375 96.5422C48.7008 96.5438 52.5641 96.5488 56.4273 96.5551C60.3932 96.5616 64.3591 96.5651 68.325 96.5657C70.5519 96.5661 72.7787 96.5679 75.0056 96.5728C76.9021 96.5771 78.7986 96.5787 80.6951 96.5768C81.6625 96.5759 82.6299 96.5762 83.5974 96.58C84.4838 96.5835 85.3701 96.5833 86.2565 96.5803C86.5764 96.5798 86.8964 96.5806 87.2163 96.5829C89.7549 96.6002 91.7885 96.2548 93.75 94.5312C93.8683 94.4332 93.9866 94.3353 94.1085 94.2344C95.301 93.1643 96.1762 91.6181 96.4843 90.039C96.5035 89.6124 96.5115 89.1853 96.5131 88.7583C96.5142 88.5657 96.5142 88.5657 96.5153 88.3693C96.5174 87.9395 96.5182 87.5097 96.5189 87.0799C96.5201 86.7715 96.5214 86.4631 96.5228 86.1548C96.5269 85.1421 96.5289 84.1295 96.5309 83.1168C96.5317 82.7676 96.5325 82.4185 96.5333 82.0693C96.537 80.4282 96.5398 78.787 96.5414 77.1459C96.5433 75.2546 96.5485 73.3634 96.5564 71.4721C96.5623 70.0084 96.5651 68.5448 96.5658 67.0811C96.5662 66.2078 96.568 65.3346 96.5729 64.4613C96.5775 63.6387 96.5783 62.8162 96.5763 61.9937C96.5762 61.6931 96.5774 61.3926 96.5801 61.0921C96.603 58.3821 96.0706 56.1376 94.1772 54.1137C92.3863 52.4383 90.2552 51.7009 87.8326 51.7043C87.5297 51.7003 87.2268 51.6963 86.9239 51.6921C86.4529 51.6877 85.9819 51.6845 85.5109 51.6833C85.0518 51.6815 84.5929 51.6749 84.1339 51.6677C83.9933 51.6687 83.8527 51.6697 83.7078 51.6707C83.0551 51.6578 82.6778 51.6061 82.1424 51.2205C81.8094 50.7431 81.7197 50.4712 81.6658 49.8969C81.6469 49.7273 81.6281 49.5577 81.6087 49.383C81.591 49.2039 81.5734 49.0248 81.5551 48.8402C81.1026 45.1321 79.5119 41.9413 76.5541 39.5606C73.9524 37.6328 67.8058 34.9099 64.7465 37.3418Z" fill="#BAD980" stroke="#F5F5F5" stroke-width="0.5"/>
<path d="M28.7842 13.6842C29.1851 14.409 29.2329 14.8079 29.1015 15.6251C28.7508 16.1629 28.5053 16.5091 27.9297 16.797C27.4866 16.8497 27.043 16.8977 26.5991 16.9435C23.5896 17.3105 21.1408 18.6213 19.162 20.923C17.304 23.4553 16.825 26.0125 16.9922 29.1017C17.0866 29.6432 17.2262 30.1356 17.3828 30.6642C17.4422 31.4363 17.433 31.9677 16.9922 32.6173C16.2704 33.0984 15.6813 33.1385 14.8437 33.0079C13.8358 32.3814 13.6499 31.1301 13.3659 30.0469C12.7656 26.1151 13.5908 22.4191 15.8241 19.1491C16.1963 18.6712 16.5833 18.2203 16.9922 17.7735C17.1097 17.6381 17.2273 17.5026 17.3485 17.3631C19.583 14.9365 25.4724 11.6603 28.7842 13.6842Z" fill="#BAD980" stroke="#F5F5F5" stroke-width="0.5"/>
<path d="M72.8515 40.8202C75.4696 42.312 77.1257 44.3136 78.1738 47.1435C78.6966 49.6703 78.6966 49.6703 78.2714 50.9033C77.9296 51.3671 77.9296 51.3671 77.3437 51.7577C76.6845 51.8432 76.6845 51.8432 75.9765 51.7577C75.0691 51.0431 74.8592 50.4787 74.6948 49.353C74.3886 47.5275 73.8135 46.0471 72.322 44.8486C71.1396 44.0378 69.8333 43.7202 68.4379 43.46C67.283 43.2422 67.283 43.2422 66.7846 42.8344C66.5204 42.1826 66.5159 41.7126 66.6015 41.0156C67.902 38.9528 70.9859 39.9544 72.8515 40.8202Z" fill="#BAD980" stroke="#F5F5F5" stroke-width="0.5"/>
<path d="M87.5 28.5156C88.0067 29.0699 88.0896 29.357 88.0691 30.1071C87.8379 31.0812 87.3839 31.7132 86.792 32.5073C86.6852 32.6531 86.5783 32.7988 86.4683 32.949C86.2575 33.2344 86.0454 33.5187 85.8316 33.8018C85.5976 34.1123 85.3693 34.427 85.1425 34.7427C84.7334 35.2736 84.4338 35.6617 83.7845 35.8673C83.0541 35.927 82.6322 35.7522 82.0312 35.3516C81.6236 34.7401 81.533 34.3703 81.5527 33.6412C81.728 32.7675 82.2991 32.1223 82.8369 31.4331C82.9482 31.2839 83.0595 31.1348 83.1741 30.9811C83.5028 30.5444 83.8391 30.1151 84.1797 29.6875C84.337 29.4863 84.337 29.4863 84.4976 29.281C84.6476 29.0959 84.6476 29.0959 84.8007 28.907C84.8883 28.7981 84.9759 28.6893 85.0661 28.5771C85.8273 27.8923 86.6208 28.164 87.5 28.5156Z" fill="#BAD980" stroke="#F5F5F5" stroke-width="0.5"/>
<path d="M74.414 21.6798C74.9413 22.0313 75.3011 22.2821 75.5859 22.8517C75.5678 24.3071 75.213 25.7224 74.8535 27.1241C74.7832 27.4225 74.7832 27.4225 74.7116 27.7269C74.3454 29.1613 74.3454 29.1613 73.7335 29.8165C73.0541 30.1784 72.6334 30.2001 71.8749 30.0782C71.3012 29.6998 71.3012 29.6998 70.8984 29.1017C70.7895 27.6696 71.0655 26.4275 71.4355 25.0489C71.5095 24.7517 71.5095 24.7517 71.585 24.4485C71.8516 23.4343 72.0757 22.6257 72.8515 21.8751C73.4088 21.5965 73.7958 21.6192 74.414 21.6798Z" fill="#BAD980" stroke="#F5F5F5" stroke-width="0.5"/>
<path d="M90.7287 41.4718C90.9378 41.4704 90.9378 41.4704 91.151 41.469C91.4445 41.4683 91.7381 41.4701 92.0315 41.4742C92.4793 41.4794 92.9261 41.4742 93.3738 41.468C93.6599 41.4686 93.946 41.4699 94.2321 41.4718C94.4315 41.4688 94.4315 41.4688 94.6348 41.4658C95.3861 41.4842 95.6875 41.5887 96.2756 42.0723C96.6734 42.5702 96.8105 42.7504 96.7895 43.3715C96.6797 44.1406 96.6797 44.1406 96.3134 44.6166C95.3067 45.3569 94.1359 45.1535 92.9344 45.1533C92.5079 45.1538 92.0814 45.1573 91.6549 45.161C91.3833 45.1616 91.1117 45.162 90.8401 45.1621C90.593 45.163 90.346 45.1638 90.0914 45.1646C89.4866 45.1196 89.1634 45.0695 88.6718 44.7265C88.2593 44.1077 88.2165 43.7241 88.1721 42.9946C88.5085 41.7102 89.5523 41.4543 90.7287 41.4718Z" fill="#BAD980" stroke="#F5F5F5" stroke-width="0.5"/>
</g>
<defs>
<clipPath id="clip0_481_4335">
<rect width="100" height="100" fill="white"/>
</clipPath>
</defs>
</svg>
