<svg width="53" height="60" viewBox="0 0 53 60" fill="none" xmlns="http://www.w3.org/2000/svg">
<path d="M16.1431 23.1365C13.2896 22.0695 10.9324 20.0597 9.41883 17.5784C9.79102 17.6776 10.188 17.7521 10.6098 17.7521C13.1656 17.7521 15.2498 15.6678 15.2498 13.1121C15.2498 10.5564 13.1656 8.47208 10.6098 8.47208C8.05412 8.47208 8.64963 8.81946 7.88043 9.36534C8.07893 8.39764 8.42631 7.40513 8.92257 6.46224C12.2723 0.0357161 19.1455 2.517 24.8524 2.96363C25.0013 2.96363 25.4479 3.06288 25.4231 2.83957C21.6019 0.953791 17.6567 -0.534979 13.3144 0.184593C8.87294 0.904166 4.23294 4.27871 1.97497 8.1247C-3.70718 17.7769 4.53069 25.2704 5.99465 34.5504C7.26011 42.5153 7.55786 49.3884 12.1234 56.4353C12.9174 57.6511 15.3491 61.1994 17.0612 59.5865C17.88 58.8173 17.8552 55.939 17.8552 54.8224C17.7808 47.85 16.7138 40.2077 20.8824 34.0789C24.108 29.3149 36.837 25.3448 38.0032 19.2657C37.4325 20.0597 25.175 26.4862 16.1431 23.1117V23.1365Z" fill="#BAD980"/>
<path d="M21.8502 17.6032C21.8502 20.1589 23.9345 22.2432 26.4902 22.2432C29.0459 22.2432 31.1302 20.1589 31.1302 17.6032C31.1302 15.0475 29.0459 12.9632 26.4902 12.9632C23.9345 12.9632 21.8502 15.0475 21.8502 17.6032Z" fill="#BAD980"/>
<path d="M52.1465 10.4075C50.3848 5.54417 45.1493 1.02823 39.9882 0.184596C37.1595 -0.262035 34.306 0.333473 31.6759 1.37561C29.0953 2.39294 26.3163 3.75764 24.1576 5.49454C24.7283 5.61861 25.6463 5.14716 26.1922 4.97347C26.9366 4.75016 27.681 4.50203 28.4254 4.27871C34.0083 2.59144 42.2958 0.581602 45.1244 7.50438C45.4718 8.37283 45.7199 9.21647 45.8688 10.0601C45.0252 9.0924 43.7845 8.47208 42.395 8.47208C39.8393 8.47208 37.755 10.5564 37.755 13.1121C37.755 15.6678 39.8393 17.7521 42.395 17.7521C44.9507 17.7521 44.2064 17.4791 44.9259 16.9829C43.586 20.01 41.1544 22.665 38.4002 24.6252C36.9114 25.6922 35.2985 26.5358 33.6609 27.3546C30.733 28.7938 27.681 30.0841 25.1749 32.1932C22.6936 34.2526 20.8823 37.1805 19.9394 40.2573C19.1702 42.7634 18.7732 45.3688 18.798 47.9741C18.798 48.3215 18.798 48.7433 19.0213 49.0163C19.6664 47.6267 19.8649 45.9146 20.3612 44.4507C20.8823 42.9619 21.5026 41.5228 22.2966 40.1333C23.7109 37.6768 26.5396 34.1782 29.6164 36.5354C33.8842 39.8107 34.0827 52.1675 35.2489 57.2541C36.2911 61.8445 38.7972 59.8595 40.7822 57.2293C46.0177 50.2817 45.7448 41.9446 47.1839 33.93C48.6479 25.6922 55.3473 19.2657 52.1465 10.4075Z" fill="#6AC9C8"/>
</svg>
