<svg width="78" height="94" viewBox="0 0 78 94" fill="none" xmlns="http://www.w3.org/2000/svg">
<path d="M8.6645 47.1419C8.6645 47.8395 8.43937 49.5048 8.19173 51.4401C7.26872 58.6411 5.51274 72.053 8.79957 81.0993C11.5236 88.6379 17.8947 93.7911 23.3427 92.846C26.9897 92.2159 29.1735 88.9079 29.1735 84.0247C29.1735 71.1304 29.9164 60.4638 38.9214 60.4638C47.9264 60.4638 48.6693 71.1304 48.6693 84.0247C48.6693 88.9079 50.8531 92.1934 54.5001 92.846C60.4434 93.6786 66.2292 88.5028 69.0432 81.0993C72.3075 72.053 70.5741 58.6411 69.6511 51.4401C69.4034 49.5048 69.1783 47.8395 69.1783 47.1419C69.1783 46.5569 69.9662 44.9816 70.7542 43.4739C73.163 38.7933 77.1928 30.9396 77.1928 17.6402C77.1928 9.20153 72.285 0.650311 62.9423 0.650311C54.8603 0.605304 46.8008 4.29583 38.9214 4.34084C31.042 4.29583 23.005 0.605304 14.9005 0.650311C5.53526 0.650311 0.650024 9.20153 0.650024 17.6402C0.650024 30.9171 4.67978 38.7707 7.08862 43.4739C7.85405 44.9816 8.6645 46.5344 8.6645 47.1419ZM14.923 5.17346C22.8024 5.21846 30.8394 8.90899 38.9439 8.86398C47.0259 8.90899 55.0854 5.21846 62.9648 5.17346C69.6736 5.17346 72.7128 11.6544 72.7128 17.6627C72.7128 29.8595 69.1333 36.813 66.7695 41.4261C65.5763 43.7665 64.6983 45.4542 64.6983 47.1419C64.6983 48.1321 64.9009 49.7523 65.1936 52.0026C66.0716 58.8211 67.715 71.5354 64.8334 79.5466C62.6271 85.6674 57.7869 88.8179 55.3106 88.3903C53.4645 88.0753 53.1944 85.5099 53.1944 84.0022C53.1944 72.8406 53.1944 55.9407 38.9439 55.9407C24.6935 55.9407 24.6935 72.8181 24.6935 84.0022C24.6935 85.5099 24.4233 88.0753 22.5773 88.3903C20.1009 88.8179 15.2607 85.6674 13.0544 79.5466C10.1503 71.5354 11.7937 58.8211 12.6942 52.0026C12.9869 49.7523 13.1895 48.1321 13.1895 47.1419C13.1895 45.4542 12.3115 43.7665 11.1184 41.4261C8.75455 36.813 5.17505 29.837 5.17505 17.6627C5.17505 11.6544 8.23676 5.17346 14.923 5.17346Z" fill="#BAD980" stroke="#F5F5F5" stroke-width="1.3"/>
<g clip-path="url(#clip0_481_4435)">
<path d="M67.5719 9.53554C67.65 9.61367 67.65 9.61367 67.694 9.85781C67.6299 10.2996 67.3657 10.4418 67.025 10.7074C66.7981 10.8734 66.5659 11.0304 66.3317 11.1859C65.8243 11.5279 65.3226 11.8758 64.8278 12.2357C64.3776 12.563 63.9257 12.8874 63.4704 13.2074C63.0169 13.5262 62.5665 13.8487 62.1178 14.1742C61.5564 14.5814 60.9895 14.9803 60.4205 15.3769C59.9311 15.7185 59.4466 16.0665 58.9638 16.4174C58.4455 16.7932 57.9209 17.1598 57.394 17.5234C57.0483 17.7634 56.7185 18.0102 56.4 18.2855C56.3835 18.4724 56.3835 18.4724 56.4782 18.6762C56.9571 18.9668 57.5334 19.1103 58.0654 19.2719C58.1515 19.2984 58.2376 19.325 58.3263 19.3523C58.5127 19.4098 58.6992 19.467 58.8858 19.5241C59.1825 19.6149 59.479 19.7063 59.7755 19.7979C60.1983 19.9284 60.6212 20.0587 61.0441 20.189C62.0192 20.4893 62.9941 20.7903 63.9684 21.0932C64.3017 21.1968 64.635 21.2999 64.9685 21.4027C65.2258 21.4821 65.4829 21.5622 65.74 21.6422C65.8329 21.6707 65.9259 21.6992 66.0217 21.7286C66.1073 21.7553 66.1929 21.7821 66.2811 21.8097C66.3554 21.8327 66.4297 21.8557 66.5062 21.8794C66.7258 21.9624 66.9103 22.058 67.1032 22.1918C67.1666 22.3773 67.1666 22.3773 67.1032 22.5824C66.5132 23.0098 65.8302 23.2838 65.1696 23.5834C65.0403 23.6424 64.9109 23.7015 64.7816 23.7606C63.8668 24.1778 62.9483 24.5863 62.0285 24.9925C60.9913 25.4508 59.962 25.925 58.934 26.4036C58.074 26.8039 57.2125 27.2003 56.3463 27.5873C56.2566 27.6276 56.1668 27.6679 56.0743 27.7094C55.6482 27.9004 55.2211 28.088 54.7912 28.2703C54.7106 28.3051 54.63 28.34 54.5469 28.3759C54.3975 28.4404 54.2475 28.5036 54.0968 28.5653C53.7911 28.6985 53.6245 28.7756 53.4395 29.0598C53.4087 29.3117 53.4087 29.3117 53.572 29.5307C53.8618 29.8318 54.2024 30.0722 54.5397 30.3168C54.6809 30.4208 54.822 30.525 54.963 30.6293C55.0338 30.6816 55.1046 30.7338 55.1776 30.7877C55.4847 31.0165 55.7863 31.2522 56.0875 31.4887C56.5778 31.8725 57.0729 32.2491 57.5719 32.6215C58.1289 33.0371 58.6798 33.4595 59.227 33.8879C59.7445 34.2922 60.2695 34.6861 60.7967 35.0777C61.7542 35.7907 61.7542 35.7907 61.8688 36.0199C61.8981 36.2494 61.8981 36.2494 61.8688 36.4887C61.5294 36.7625 61.1138 36.8274 60.6983 36.9217C60.6191 36.9402 60.5399 36.9588 60.4583 36.9779C60.1928 37.0399 59.9271 37.1009 59.6615 37.1619C59.4715 37.206 59.2816 37.2503 59.0916 37.2945C58.6821 37.3899 58.2725 37.4848 57.8628 37.5794C57.2637 37.7176 56.6648 37.8567 56.066 37.996C55.7861 38.0611 55.5062 38.1262 55.2264 38.1912C55.1704 38.2042 55.1145 38.2172 55.0568 38.2306C54.6551 38.324 54.2534 38.4172 53.8517 38.5103C52.3293 38.8633 50.8074 39.2178 49.2858 39.574C49.2354 39.5858 49.185 39.5976 49.133 39.6097C48.5773 39.7398 48.0217 39.8699 47.466 40.0001C46.5615 40.2118 45.657 40.4233 44.7525 40.6348C44.3565 40.7274 43.9604 40.82 43.5644 40.9126C43.2711 40.9812 42.9778 41.0498 42.6845 41.1184C42.2026 41.231 41.7208 41.3437 41.2389 41.4564C39.2048 41.9321 37.1706 42.4076 35.1363 42.8823C34.3094 43.0752 33.4826 43.2685 32.6559 43.4623C32.1321 43.5851 31.6081 43.7076 31.0841 43.8298C30.7917 43.8981 30.4993 43.9665 30.207 44.0352C29.897 44.1082 29.5868 44.1804 29.2766 44.2526C29.1873 44.2738 29.098 44.2949 29.006 44.3167C28.9247 44.3355 28.8434 44.3543 28.7597 44.3737C28.6552 44.3981 28.6552 44.3981 28.5485 44.4231C28.2515 44.4753 28.0429 44.5073 27.7819 44.3451C27.6176 44.0956 27.5832 43.9215 27.6038 43.625C27.7043 43.2268 28.1662 43.0388 28.4975 42.8387C28.7095 42.7157 28.9224 42.5946 29.1363 42.475C29.3799 42.3388 29.6226 42.201 29.8653 42.0633C29.9151 42.0351 29.965 42.0069 30.0163 41.9778C30.5239 41.6895 31.0257 41.3921 31.527 41.0932C32.2998 40.6329 33.0764 40.1798 33.8561 39.7313C34.6548 39.2719 35.4508 38.8078 36.2463 38.3429C36.7142 38.0695 37.1823 37.7966 37.6504 37.5236C38.0392 37.2969 38.4279 37.0701 38.8164 36.843C38.9713 36.7525 39.1261 36.6621 39.2809 36.5717C39.3569 36.5272 39.433 36.4827 39.5113 36.4369C39.9316 36.1916 40.3529 35.9482 40.7757 35.7071C40.8677 35.6545 40.9598 35.6018 41.0519 35.5492C41.2269 35.4492 41.4022 35.3495 41.5776 35.2503C42.2726 34.8725 42.2726 34.8725 42.8844 34.3793C42.8844 34.3019 42.8844 34.2246 42.8844 34.1449C42.421 33.961 41.9607 33.8259 41.4765 33.7089C41.4002 33.6901 41.324 33.6714 41.2455 33.6521C40.9934 33.5902 40.7411 33.5288 40.4888 33.4674C40.31 33.4237 40.1312 33.3798 39.9525 33.336C39.5734 33.2431 39.1943 33.1505 38.8151 33.0581C38.3243 32.9384 37.8336 32.8184 37.3429 32.6982C35.6349 32.2798 33.9266 31.8623 32.2165 31.4527C32.0395 31.4103 31.8625 31.3678 31.6855 31.3254C31.1737 31.2026 30.6618 31.0805 30.1496 30.9596C29.9747 30.9179 29.7999 30.8761 29.6251 30.8344C29.5108 30.8078 29.5108 30.8078 29.3941 30.7807C29.0222 30.6912 28.6807 30.6011 28.3532 30.3949C28.3145 30.2789 28.3145 30.2789 28.275 30.1605C28.5132 29.8915 28.73 29.7678 29.0625 29.6356C29.1098 29.6165 29.157 29.5975 29.2057 29.5779C29.3629 29.5147 29.5206 29.4526 29.6782 29.3906C29.7906 29.3457 29.9029 29.3007 30.0152 29.2557C30.2559 29.1593 30.4968 29.0634 30.7379 28.968C31.1209 28.8163 31.5035 28.6635 31.886 28.5105C32.3444 28.3273 32.803 28.1443 33.2617 27.9616C34.0062 27.6651 34.7499 27.3669 35.4931 27.067C35.5431 27.0468 35.5932 27.0265 35.6448 27.0057C35.8933 26.9054 36.1417 26.8051 36.3901 26.7048C36.8298 26.5271 37.2697 26.3496 37.7095 26.1722C37.8072 26.1328 37.9049 26.0934 38.0026 26.054C38.6912 25.7762 39.3801 25.4991 40.0692 25.2224C40.4636 25.064 40.858 24.9055 41.2524 24.7469C41.5736 24.6178 41.8949 24.4888 42.2162 24.3601C42.4608 24.262 42.7053 24.1636 42.9497 24.0653C43.0807 24.0129 43.0807 24.0129 43.2144 23.9595C43.9572 23.7029 43.9572 23.7029 44.6032 23.2855C44.6325 23.0974 44.6325 23.0974 44.6032 22.8949C44.2468 22.4722 43.6751 22.2026 43.2068 21.9154C42.6655 21.5816 42.1379 21.2278 41.61 20.8734C40.9904 20.4576 40.3685 20.0472 39.735 19.6527C39.2917 19.3762 38.8567 19.0918 38.4313 18.7885C38.3868 18.7567 38.3422 18.725 38.2963 18.6923C37.8734 18.3859 37.8734 18.3859 37.7282 18.2074C37.7038 17.9779 37.7038 17.9779 37.8063 17.7387C38.4339 17.3719 39.232 17.2332 39.9294 17.0398C40.0641 17.0021 40.1988 16.9644 40.3335 16.9266C40.6986 16.8244 41.0639 16.7226 41.4291 16.621C41.8183 16.5126 42.2073 16.4037 42.5963 16.2949C43.2499 16.1121 43.9036 15.9296 44.5573 15.7473C45.4959 15.4856 46.4343 15.2234 47.3726 14.961C47.6729 14.877 47.9732 14.793 48.2734 14.7091C48.3475 14.6883 48.4217 14.6676 48.498 14.6463C49.0274 14.4982 49.5568 14.3503 50.0862 14.2024C51.9371 13.6853 53.7875 13.1667 55.6375 12.6466C56.1356 12.5066 56.6337 12.3668 57.1318 12.2271C57.4167 12.1472 57.7015 12.0673 57.9864 11.9873C58.0571 11.9675 58.1278 11.9476 58.2007 11.9272C59.1402 11.6635 60.0792 11.3982 61.0178 11.1315C61.6964 10.9387 62.3752 10.7466 63.0541 10.555C63.541 10.4175 64.0277 10.279 64.5142 10.1399C64.8143 10.0543 65.1147 9.96964 65.4151 9.88521C65.5546 9.84583 65.694 9.80606 65.8332 9.76591C66.024 9.71094 66.2151 9.65733 66.4063 9.60402C66.4614 9.5878 66.5165 9.57159 66.5732 9.55489C66.931 9.45715 67.2103 9.45539 67.5719 9.53554ZM61.009 12.4303C60.9165 12.4578 60.9165 12.4578 60.822 12.4859C60.7548 12.5063 60.6875 12.5267 60.6183 12.5478C60.5108 12.5799 60.5108 12.5799 60.4011 12.6127C60.1614 12.6844 59.922 12.7567 59.6825 12.829C59.5127 12.88 59.3428 12.9309 59.1729 12.9818C58.7148 13.1191 58.2569 13.2569 57.799 13.3948C57.3216 13.5386 56.8439 13.6818 56.3663 13.8251C55.5953 14.0565 54.8243 14.2882 54.0534 14.5201C53.0963 14.8079 52.1391 15.0952 51.1818 15.3821C50.9135 15.4625 50.6451 15.543 50.3767 15.6234C50.3124 15.6427 50.2481 15.662 50.1819 15.6818C49.7391 15.8146 49.2962 15.9475 48.8535 16.0806C48.6089 16.154 48.3643 16.2275 48.1197 16.301C48.0607 16.3187 48.0016 16.3365 47.9407 16.3547C47.1192 16.6015 46.2972 16.847 45.475 17.0915C45.1422 17.1905 44.8096 17.2897 44.4769 17.3889C44.2197 17.4656 43.9624 17.5421 43.7051 17.6182C43.4288 17.7 43.1526 17.7823 42.8765 17.8647C42.7963 17.8883 42.716 17.9119 42.6333 17.9362C42.2532 18.0502 41.9036 18.1707 41.5563 18.3637C41.5169 18.5423 41.5169 18.5423 41.5563 18.7543C41.9731 19.1539 42.4744 19.4481 42.9577 19.7601C43.0488 19.8193 43.1399 19.8785 43.231 19.9378C43.4622 20.0881 43.6937 20.2381 43.9251 20.3881C44.569 20.8052 45.2116 21.2243 45.8532 21.6449C45.8984 21.6746 45.9437 21.7042 45.9903 21.7347C46.2829 21.9265 46.5752 22.1189 46.867 22.3119C46.9619 22.3746 47.057 22.4372 47.1522 22.4996C47.2847 22.5866 47.4169 22.6742 47.549 22.7619C47.6252 22.8121 47.7013 22.8623 47.7797 22.9141C48.0004 23.0795 48.1067 23.2046 48.1481 23.4809C48.1188 23.6762 48.1188 23.6762 47.9849 23.7953C47.7998 23.9147 47.6248 23.9953 47.4196 24.0753C47.3381 24.1075 47.2565 24.1397 47.1724 24.1729C47.0803 24.2088 46.9882 24.2447 46.8932 24.2816C46.6788 24.3661 46.4645 24.451 46.2502 24.5358C46.1902 24.5595 46.1303 24.5832 46.0685 24.6076C45.2686 24.9239 44.4715 25.2469 43.674 25.5691C43.2426 25.7435 42.8111 25.9176 42.3796 26.0918C42.2302 26.1521 42.0807 26.2124 41.9313 26.2728C40.929 26.6774 39.9266 27.0819 38.9241 27.4862C38.6202 27.6088 38.3163 27.7314 38.0124 27.8541C37.8686 27.9121 37.7247 27.9701 37.5809 28.0282C37.3936 28.1037 37.2064 28.1793 37.0191 28.2549C36.5728 28.435 36.1261 28.6141 35.6783 28.7905C35.4612 28.8761 35.2443 28.962 35.0274 29.0478C34.9236 29.0887 34.8198 29.1295 34.716 29.1701C34.572 29.2263 34.4283 29.2831 34.2846 29.34C34.2026 29.3722 34.1207 29.4044 34.0362 29.4375C33.8355 29.5293 33.6792 29.63 33.5094 29.7699C33.5352 29.8473 33.561 29.9246 33.5875 30.0043C33.7768 30.0914 33.7768 30.0914 34.0153 30.1538C34.1079 30.1803 34.2006 30.2069 34.2961 30.2343C34.8495 30.3846 35.4058 30.523 35.9627 30.6595C36.0954 30.6922 36.228 30.725 36.3606 30.7577C36.7153 30.8453 37.0701 30.9324 37.4249 31.0195C37.7202 31.0921 38.0154 31.1648 38.3106 31.2376C39.8345 31.6133 41.3592 31.9862 42.8847 32.3554C43.0131 32.3864 43.1415 32.4175 43.2699 32.4486C43.8129 32.58 44.3559 32.7113 44.8992 32.8416C45.1188 32.8944 45.3384 32.9474 45.558 33.0004C45.7066 33.0362 45.8554 33.0718 46.0041 33.1072C46.1365 33.1393 46.1365 33.1393 46.2716 33.1719C46.386 33.1994 46.386 33.1994 46.5026 33.2274C46.7105 33.285 46.9047 33.3578 47.1032 33.4418C47.1194 33.6229 47.1194 33.6229 47.1032 33.8324C46.9958 33.9558 46.9958 33.9558 46.8429 34.0604C46.7567 34.1197 46.7567 34.1197 46.6687 34.1801C46.3319 34.3941 45.9896 34.5964 45.6432 34.7943C45.4763 34.8907 45.3093 34.9872 45.1424 35.0836C45.0548 35.1341 44.9672 35.1846 44.8769 35.2367C44.4518 35.482 44.0287 35.7305 43.6054 35.9789C43.4599 36.0643 43.3144 36.1496 43.1689 36.2349C42.5362 36.6059 41.9044 36.9786 41.2731 37.3522C40.7348 37.6707 40.1953 37.9871 39.6555 38.3032C38.6931 38.8666 37.7326 39.433 36.7739 40.0025C36.448 40.196 36.1217 40.3888 35.7949 40.5809C35.5967 40.6973 35.3986 40.814 35.2006 40.9307C35.1055 40.9867 35.0103 41.0425 34.9151 41.0983C34.7838 41.1751 34.6527 41.2524 34.5217 41.3297C34.4467 41.3737 34.3718 41.4177 34.2946 41.463C34.2417 41.4973 34.1889 41.5315 34.1344 41.5668C34.1344 41.5926 34.1344 41.6184 34.1344 41.6449C34.7502 41.6052 35.3279 41.4803 35.9251 41.3292C36.0236 41.3048 36.1221 41.2803 36.2236 41.2551C36.4932 41.1882 36.7626 41.1206 37.032 41.0529C37.3186 40.981 37.6054 40.9097 37.8921 40.8384C38.3804 40.7168 38.8685 40.5949 39.3566 40.4726C40.1181 40.2819 40.8799 40.092 41.6417 39.9022C41.8945 39.8392 42.1472 39.7763 42.3999 39.7133C42.4931 39.69 42.4931 39.69 42.5882 39.6663C43.0246 39.5576 43.4609 39.4487 43.8973 39.3398C45.5219 38.9342 47.1469 38.5304 48.7729 38.1305C49.0923 38.0519 49.4117 37.9732 49.731 37.8945C50.7033 37.6548 51.6758 37.4159 52.6486 37.1781C53.2143 37.0398 53.78 36.9012 54.3456 36.7624C54.751 36.663 55.1564 36.564 55.5619 36.4653C55.8102 36.4047 56.0583 36.3438 56.3064 36.2828C56.4214 36.2546 56.5365 36.2266 56.6516 36.1987C56.8099 36.1604 56.9681 36.1214 57.1263 36.0823C57.2147 36.0607 57.3032 36.0391 57.3943 36.0169C57.9075 35.8853 57.9075 35.8853 58.2897 35.5609C58.2674 35.3083 58.128 35.192 57.9625 35.0043C57.8377 34.9004 57.7086 34.8014 57.5768 34.7064C57.4942 34.6459 57.4116 34.5854 57.3266 34.523C57.2795 34.4886 57.2324 34.4541 57.1839 34.4186C56.8629 34.1813 56.5464 33.938 56.2291 33.6957C56.1581 33.6415 56.087 33.5873 56.0137 33.5314C55.5287 33.1616 55.0442 32.7912 54.5599 32.4205C54.1255 32.0882 53.6906 31.7566 53.2555 31.4252C53.1875 31.3734 53.1196 31.3216 53.0495 31.2683C52.6866 30.9918 52.3235 30.7154 51.9604 30.4392C51.8862 30.3827 51.812 30.3262 51.7355 30.2681C51.5935 30.16 51.4514 30.0519 51.3093 29.9439C51.1841 29.8486 51.0591 29.7531 50.9343 29.6573C50.8034 29.5572 50.6713 29.4587 50.5388 29.3607C50.3844 29.223 50.3844 29.223 50.2965 28.9545C50.3063 28.6762 50.3063 28.6762 50.4681 28.4798C50.7117 28.273 50.9517 28.1454 51.2432 28.0234C51.3235 27.9884 51.3235 27.9884 51.4054 27.9526C51.5214 27.9022 51.6376 27.8521 51.754 27.8024C52.072 27.6664 52.3887 27.5273 52.7056 27.3886C52.7717 27.3598 52.8379 27.3309 52.906 27.3012C53.62 26.9891 54.3264 26.6611 55.0329 26.3324C56.0056 25.8807 56.9815 25.4375 57.9625 25.0043C58.9269 24.578 59.8888 24.1466 60.8472 23.7071C60.9837 23.6446 61.1203 23.5823 61.2569 23.5201C61.4466 23.4338 61.6359 23.3468 61.8252 23.2596C61.9099 23.2212 61.9099 23.2212 61.9964 23.1821C62.2515 23.0636 62.4708 22.9603 62.65 22.7387C62.572 22.5195 62.5223 22.4406 62.3113 22.3341C62.233 22.3087 62.1546 22.2833 62.0739 22.2571C61.9814 22.2266 61.8889 22.196 61.7936 22.1646C61.6885 22.1313 61.5833 22.0981 61.4782 22.0648C61.3667 22.0287 61.2552 21.9925 61.1438 21.9562C60.7351 21.8241 60.3255 21.6953 59.9157 21.5668C59.8307 21.5401 59.7456 21.5135 59.658 21.486C58.7008 21.1861 57.743 20.8882 56.7845 20.5925C56.5998 20.5355 56.4152 20.4784 56.2305 20.4213C55.791 20.2854 55.3512 20.1502 54.9108 20.0173C54.7012 19.954 54.4917 19.8902 54.2823 19.8263C54.1342 19.7813 53.9859 19.737 53.8376 19.6927C53.7479 19.6653 53.6583 19.638 53.566 19.6097C53.487 19.5859 53.408 19.5621 53.3266 19.5376C53.1165 19.4565 52.9711 19.376 52.8063 19.223C52.7599 18.9969 52.7599 18.9969 52.8063 18.7543C52.9845 18.5678 52.9845 18.5678 53.236 18.3881C53.3044 18.3383 53.3044 18.3383 53.3742 18.2876C53.5222 18.1809 53.6718 18.0768 53.8219 17.973C53.87 17.9395 53.918 17.9059 53.9675 17.8714C54.2208 17.6947 54.4753 17.5201 54.7307 17.3465C55.1056 17.0915 55.4771 16.8319 55.8483 16.5717C55.9474 16.5022 55.9474 16.5022 56.0484 16.4314C56.6333 16.0212 57.217 15.6095 57.8003 15.1971C58.0202 15.0417 58.2402 14.8864 58.4602 14.7311C58.5707 14.6531 58.6812 14.5751 58.7917 14.4971C59.074 14.2977 59.3565 14.0985 59.6392 13.8996C59.9164 13.7044 60.1932 13.5089 60.4698 13.3129C60.5657 13.245 60.6617 13.1772 60.7577 13.1096C60.8793 13.0238 61.0005 12.9374 61.1217 12.851C61.1877 12.8041 61.2537 12.7573 61.3216 12.7091C61.4961 12.5808 61.4961 12.5808 61.6344 12.348C61.3806 12.348 61.2416 12.3604 61.009 12.4303Z" fill="#BAD980" stroke="#BAD980"/>
</g>
<defs>
<clipPath id="clip0_481_4435">
<rect width="40" height="40" fill="white" transform="translate(27.65 6.95752)"/>
</clipPath>
</defs>
</svg>
