<svg width="63" height="98" xmlns="http://www.w3.org/2000/svg" fill="none">

 <g>
  <title>Layer 1</title>
  <path id="svg_1" stroke-width="0.5" stroke="#F5F5F5" fill="#BAD980" d="m18.48532,0.25499c0.504,0.00419 1.0074,0.00001 1.5114,-0.00496c4.0818,-0.00677 8.1518,1.09142 11.2976,3.81775c0.7141,-0.26003 1.2916,-0.58317 1.9165,-1.01319c0.8842,-0.56928 1.7774,-1.04638 2.73441,-1.47705c0.1176,-0.05493 0.2353,-0.10986 0.3565,-0.16646c2.3419,-1.02007 4.7531,-1.15422 7.266,-1.14136c0.4933,0.00166 0.9861,-0.00398 1.4793,-0.01016c5.1187,-0.02197 9.3941,1.91328 13.115,5.39513c3.3598,3.45484 4.8497,8.20884 4.807,12.93864c-0.0401,1.5909 -0.3147,3.1566 -0.562,4.7257c-0.0553,0.3613 -0.1103,0.7227 -0.1652,1.0841c-0.144,0.9448 -0.2909,1.8892 -0.4384,2.8335c-0.1474,0.9479 -0.2916,1.8963 -0.4363,2.8447c-0.2461,1.6092 -0.4968,3.2176 -0.752,4.8254c-0.1145,0.7215 -0.2284,1.4431 -0.3373,2.1655c-0.0951,0.63 -0.1939,1.2593 -0.2939,1.8886c-0.0241,0.167 -0.0481,0.334 -0.0728,0.5061c-0.3023,1.8299 -1.1522,3.1553 -2.6319,4.2546c-3.1228,2.0245 -7.56561,3.9009 -11.3365,3.9009c0.4363,1.7289 0.9838,3.1274 2.1485,4.4922c0.1623,0.1999 0.3247,0.3998 0.492,0.6057c0.6463,0.6386 1.1601,0.7031 2.0483,0.7137c0.1715,-0.0036 0.3431,-0.0072 0.51981,-0.0109c0.179,0.0012 0.3581,0.0025 0.5425,0.0039c0.56931,0.0034 1.1382,-0.0009 1.70741,-0.0062c0.5713,-0.0022 1.1424,-0.0028 1.7137,0.0001c0.3547,0.0014 0.7095,-0.0002 1.0642,-0.0052c0.24059,0.0001 0.24059,0.0001 0.4861,0.0003c0.1409,-0.0014 0.2818,-0.0028 0.42699,-0.0042c0.4902,0.0918 0.6566,0.2664 0.9599,0.6559c0.38081,1.2705 -0.0191,2.092 -0.5508,3.2334c-0.11969,0.2674 -0.11969,0.2674 -0.24179,0.5403c-0.1688,0.3766 -0.3391,0.7525 -0.5107,1.1278c-0.2511,0.5497 -0.4981,1.1009 -0.7435,1.6531c-0.3195,0.7188 -0.6395,1.4372 -0.9607,2.1552c-0.0795,0.1777 -0.159,0.3555 -0.2409,0.5386c-0.1635,0.3648 -0.3275,0.7294 -0.4919,1.09391c-1.2804,2.841 -2.1671,5.2492 -2.2853,8.3831c-0.27,6.8474 -1.6749,13.4199 -4.4358,19.7024c-0.06871,0.1582 -0.13741,0.3163 -0.2082,0.47929c-0.6367,1.403 -1.4047,2.735 -2.7459,3.5612c-0.14581,0.0924 -0.2916,0.1848 -0.4418,0.28c-1.255,0.6909 -3.0234,0.5791 -4.4082,0.3258c-1.417,-0.4751 -2.33519,-1.3802 -3.05099,-2.6604c-0.70741,-1.4592 -0.7407,-2.8345 -0.7689,-4.4256c-0.0161,-0.8471 -0.0529,-1.6935 -0.0879,-2.54c-0.0101,-0.2557 -0.0101,-0.2557 -0.0204,-0.51649c-0.1616,-3.8366 -0.7865,-7.6161 -1.549,-11.3739c-0.0288,-0.1435 -0.0577,-0.2869 -0.0874,-0.4347c-0.0829,-0.4075 -0.1684,-0.8143 -0.2551,-1.2209c-0.0493,-0.2323 -0.0985,-0.4646 -0.1492,-0.7039c-0.2698,-0.96619 -0.5038,-1.64079 -1.3515,-2.20599c-0.4123,-0.0763 -0.4123,-0.0763 -0.8545,-0.0732c-0.1466,-0.0055 -0.2931,-0.0111 -0.4441,-0.0168c-0.6942,0.1361 -0.9568,0.3423 -1.4358,0.8713c-0.2771,0.6817 -0.4302,1.3817 -0.586,2.0996c-0.0484,0.213 -0.0968,0.4259 -0.1466,0.6453c-1.0275,4.6825 -1.7096,9.4734 -1.8515,14.2663c-0.0071,0.2364 -0.0142,0.4727 -0.0215,0.7162c-0.0123,0.4567 -0.0217,0.9135 -0.0279,1.3703c-0.0498,2.1467 -0.4538,3.5258 -1.9686,5.0867c-1.3477,1.203 -2.666,1.3487 -4.4494,1.2917c-1.7289,-0.2069 -2.7414,-1.03851 -3.8522,-2.32201c-0.6024,-0.7943 -0.9794,-1.6417 -1.3541,-2.5609c-0.0814,-0.1939 -0.1628,-0.3879 -0.2466,-0.5877c-2.5957,-6.3078 -4.0105,-12.7878 -4.1342,-19.6054c-0.0914,-2.9387 -1.1847,-5.3531 -2.3697,-7.9929c-0.1592,-0.359 -0.3183,-0.71801 -0.4771,-1.07721c-0.6648,-1.4993 -1.3364,-2.9949 -2.0322,-4.48c-0.0919,-0.197 -0.1838,-0.3939 -0.2785,-0.5968c-0.1616,-0.3437 -0.3256,-0.6863 -0.4925,-1.0274c-0.4245,-0.8983 -0.6694,-1.5942 -0.5161,-2.6086c0.2858,-0.5225 0.2858,-0.5225 0.7812,-0.9766c0.592,-0.1329 1.1692,-0.1084 1.7731,-0.09c0.3553,0.0006 0.7106,0.0011 1.0658,0.0015c0.5577,0.0065 1.1151,0.0152 1.6727,0.0261c2.3861,0.1544 2.3861,0.1544 4.4843,-0.7532c0.3242,-0.3647 0.3242,-0.3647 0.5745,-0.7469c0.2133,-0.2859 0.2133,-0.2859 0.431,-0.5775c0.6833,-1.2153 1.1899,-2.3651 1.5221,-3.7194c-0.2536,-0.0234 -0.5071,-0.0468 -0.7683,-0.0709c-0.9452,-0.1058 -1.8422,-0.3044 -2.7596,-0.5516c-0.2402,-0.0645 -0.2402,-0.0645 -0.4853,-0.1302c-3.2854,-0.9059 -7.5375,-2.1461 -9.3446,-5.26c-0.8322,-1.7008 -0.9681,-3.6411 -1.2388,-5.4939c-0.0635,-0.4183 -0.1273,-0.8365 -0.1914,-1.2547c-0.1673,-1.0964 -0.3305,-2.1934 -0.493,-3.2906c-0.1658,-1.1149 -0.3356,-2.2292 -0.505,-3.3435c-0.2471,-1.63 -0.4929,-3.2602 -0.7353,-4.8909c-0.0251,-0.1685 -0.0503,-0.337 -0.0762,-0.5105c-0.7963,-5.3766 -0.5591,-10.538 2.686,-15.14839c3.8047,-4.93054 8.9338,-7.48371 15.165,-7.42225zm-11.6356,8.36448c-2.1882,2.56686 -3.3551,5.72486 -3.3409,9.08836c0.0005,0.1605 0.0011,0.3209 0.0016,0.4863c0.0256,1.7571 0.2793,3.4625 0.5622,5.1936c0.0528,0.3362 0.1053,0.6724 0.1576,1.0087c0.1363,0.8715 0.2758,1.7424 0.4162,2.6132c0.1434,0.8942 0.2836,1.7888 0.4241,2.6834c0.2746,1.7452 0.5527,3.4898 0.8332,5.2341c0.7218,-0.1629 1.277,-0.4504 1.9287,-0.8056c6.0325,-3.1105 13.6881,-3.8846 20.3857,-3.9284c0.2422,-0.0019 0.4845,-0.0038 0.734,-0.0058c0.7807,-0.0049 1.5614,-0.0075 2.3422,-0.0087c0.1329,-0.0003 0.2659,-0.0005 0.4029,-0.0008c4.3371,-0.0063 8.5921,0.1412 12.8783,0.8431c0.3388,0.0533 0.3388,0.0533 0.6844,0.1076c3.7881,0.614 7.676,1.5712 10.9962,3.5545c0.4031,0.2763 0.4031,0.2763 0.8194,0.2441c0.261,-1.0004 0.4747,-1.9854 0.6322,-3.0084c0.021,-0.1352 0.042,-0.2704 0.06369,-0.4097c0.06841,-0.4421 0.13571,-0.8843 0.20291,-1.3266c0.0476,-0.3113 0.0952,-0.6227 0.1428,-0.934c0.0994,-0.6512 0.1981,-1.3025 0.2964,-1.9538c0.1252,-0.828 0.2528,-1.6557 0.381,-2.4832c0.0991,-0.6428 0.1965,-1.2859 0.2935,-1.929c0.0463,-0.3049 0.0931,-0.6097 0.1407,-0.9144c0.6793,-4.3676 0.51839,-8.4701 -2.141,-12.2118c-0.26141,-0.3361 -0.5256,-0.6699 -0.7934,-1.00095c-0.1037,-0.13797 -0.2075,-0.27594 -0.3144,-0.41809c-2.1736,-2.73315 -5.6768,-4.20998 -9.0438,-4.75159c-0.5278,-0.05605 -1.0489,-0.08667 -1.5793,-0.10376c-0.208,-0.00781 -0.4159,-0.01561 -0.6302,-0.02365c-3.9179,-0.07518 -7.9991,0.59092 -10.9627,3.38745c-0.1463,0.14275 -0.2925,0.28551 -0.4433,0.43259c-0.5494,0.49495 -0.9526,0.82335 -1.6967,0.91552c-0.9951,-0.09281 -1.592,-0.71885 -2.3106,-1.36528c-2.4708,-2.19933 -5.6742,-3.2409 -8.9565,-3.34663c-0.208,-0.00781 -0.4159,-0.01561 -0.6302,-0.02365c-5.1389,-0.0986 -9.3032,1.34156 -12.8769,5.16128zm5.5115,27.07676c-0.186,0.0608 -0.372,0.1217 -0.5637,0.1844c-1.7431,0.6038 -3.6281,1.4005 -4.9173,2.7575c-0.2584,0.5732 -0.2584,0.5732 -0.1953,1.1718c1.8914,2.8258 6.5729,3.7294 9.6878,4.4121c0.4855,0.0966 0.4855,0.0966 1.0544,0.0801c0.0169,-0.1488 0.0337,-0.2976 0.0511,-0.4509c0.2928,-2.1515 0.9579,-3.4267 2.5711,-4.8759c1.2674,-0.85 2.4485,-1.0099 3.9329,-1.0021c0.2699,-0.002 0.2699,-0.002 0.5453,-0.0041c0.5909,-0.0035 1.1817,-0.0028 1.7726,-0.0017c0.4134,-0.0009 0.8269,-0.0019 1.2404,-0.0031c0.8652,-0.0017 1.7303,-0.0012 2.5955,0.0007c1.1051,0.0022 2.21,-0.0017 3.315,-0.0074c0.8536,-0.0036 1.7071,-0.0035 2.5607,-0.0024c0.4073,0 0.8145,-0.0012 1.2217,-0.0036c0.5711,-0.0029 1.142,-0.0008 1.7131,0.0025c0.1658,-0.0019 0.3317,-0.0037 0.5025,-0.0057c1.6638,0.0202 3.2159,0.561 4.4376,1.7166c1.1831,1.3495 1.5321,2.9078 1.86081,4.6371c3.3437,-0.3942 7.9332,-1.382 10.2539,-4.0039c0.1686,-0.2236 0.3341,-0.4498 0.4883,-0.6836c-0.3536,-1.125 -1.0162,-1.7365 -2.0088,-2.3491c-0.2444,-0.1274 -0.4904,-0.2516 -0.7378,-0.373c-0.135,-0.0666 -0.27,-0.1331 -0.4091,-0.2017c-11.5089,-5.445 -29.1829,-4.857 -40.9727,-0.9946zm8.9721,6.4575c-0.4804,0.7207 -0.6085,1.2136 -0.6202,2.0592c-0.0759,3.2783 -0.4787,5.9698 -2.1141,8.8783c-0.0645,0.1289 -0.1289,0.2578 -0.1953,0.3906c8.6367,0 17.2734,0 26.1718,0c-0.2706,-0.6765 -0.5506,-1.3125 -0.8667,-1.9653c-0.9544,-2.1312 -1.1646,-4.0977 -1.1907,-6.4142c-0.028,-1.3647 -0.23351,-2.2113 -1.1164,-3.2904c-1.027,-0.8403 -2.2008,-0.8882 -3.4839,-0.8837c-0.1516,-0.001 -0.3033,-0.002 -0.45961,-0.0031c-0.4978,-0.0027 -0.9954,-0.0025 -1.49319,-0.002c-0.3485,-0.0008 -0.6971,-0.0016 -1.0456,-0.0026c-0.7292,-0.0014 -1.4585,-0.0014 -2.1877,-0.0003c-0.931,0.0011 -1.862,-0.0022 -2.7929,-0.0068c-0.7195,-0.0028 -1.439,-0.003 -2.1586,-0.0024c-0.343,-0.0001 -0.6861,-0.0011 -1.0292,-0.0031c-2.962,-0.1392 -2.962,-0.1392 -5.4177,1.2458zm-12.1093,14.4531c0.1397,0.6987 0.2409,1.1446 0.5247,1.7612c0.1008,0.2213 0.1008,0.2213 0.2037,0.447c0.0728,0.1573 0.1456,0.3146 0.2207,0.4766c0.1131,0.2483 0.1131,0.2483 0.2286,0.5016c0.3212,0.7048 0.6447,1.4085 0.9682,2.1122c1.6022,3.49121 2.9379,6.6644 3.0176,10.5583c0.1641,5.0007 1.0105,9.88081 2.649,14.6119c0.0435,0.1272 0.087,0.2544 0.1318,0.38541c0.5284,1.52879 1.1358,3.0069 1.8457,4.46069c0.0634,0.1321 0.1268,0.26421 0.1921,0.4002c0.3514,0.6972 0.6459,1.2187 1.346,1.58961c0.8681,0.17239 1.5641,0.1113 2.3315,-0.32961c0.7999,-0.8968 0.8566,-1.8155 0.8896,-2.977c0.0123,-0.3125 0.0247,-0.625 0.0372,-0.9375c0.006,-0.1637 0.012,-0.3275 0.0182,-0.4962c0.1843,-4.8246 0.7488,-9.5334 1.704,-14.2661c0.028,-0.1404 0.056,-0.2809 0.0849,-0.42561c0.9395,-4.65829 0.9395,-4.65829 2.7349,-5.9953c1.4915,-0.8827 3.0064,-0.94949 4.6997,-0.7446c1.4123,0.3923 2.56459,1.2803 3.3203,2.5391c0.6647,1.5454 0.9312,3.2409 1.2573,4.8828c0.0298,0.1495 0.0596,0.2989 0.0903,0.453c0.7624,3.8621 1.3122,7.7372 1.486,11.6724c0.0075,0.165 0.015,0.3299 0.0228,0.4999c0.0356,0.8043 0.0649,1.608 0.08379,2.4129c0.01041,0.29201 0.0209,0.58401 0.0315,0.8759c0.0062,0.2556 0.0125,0.5112 0.019,0.7746c0.1741,0.8998 0.4707,1.22169 1.11089,1.866c0.7149,0.3575 1.5938,0.3049 2.3483,0.0748c0.5583,-0.39059 0.8147,-0.9105 1.1185,-1.503c0.1002,-0.1935 0.1002,-0.1935 0.2025,-0.3908c3.1093,-6.181 4.3171,-13.0236 4.57869,-19.8783c0.13811,-3.3848 1.19381,-6.0613 2.57961,-9.11331c0.1697,-0.378 0.3392,-0.7562 0.5085,-1.1345c0.3118,-0.6958 0.6247,-1.391 0.9391,-2.0856c0.0694,-0.1538 0.13879,-0.3076 0.2102,-0.4661c0.145,-0.3206 0.2909,-0.6407 0.4375,-0.9606c0.1075,-0.2366 0.1075,-0.2366 0.2172,-0.478c0.0647,-0.1413 0.1294,-0.2826 0.196,-0.4282c0.1644,-0.3521 0.1644,-0.3521 0.1404,-0.7458c-14.7597,0 -29.5195,0 -44.7265,0z"/>
  <path id="svg_2" fill="#BAD980" d="m17.62242,6.60688c0.0052,0.51678 0.0091,1.0335 0.0122,1.55029c0.0016,0.14741 0.0033,0.29483 0.0049,0.4467c0.0017,0.37606 -0.0069,0.75206 -0.0171,1.12806c-0.3325,0.3325 -0.8026,0.2838 -1.2574,0.3417c-1.9645,0.3174 -3.7418,1.2037 -4.9255,2.8397c-0.953,1.5089 -1.3779,2.8688 -1.6296,4.6311c-1.0957,0 -2.1914,0 -3.3203,0c-0.1889,-2.739 0.865,-5.2565 2.5749,-7.3609c2.2843,-2.46064 5.1964,-3.7522 8.5579,-3.57665z"/>
 </g>
</svg>