<svg width="130" height="77" viewBox="0 0 130 77" fill="none" xmlns="http://www.w3.org/2000/svg">
<path d="M128.527 34.2022H126.044C127.849 29.5687 129.971 22.8822 129.971 13.8719C129.971 7.18545 126.506 0 118.898 0C115.52 0 112.171 0.812639 108.922 1.59676C105.703 2.38089 102.671 3.10799 99.6398 3.10799C96.6082 3.10799 93.5765 2.36663 90.3572 1.59676C87.1235 0.812639 83.7742 0 80.3816 0C72.7737 0 69.3089 7.19971 69.3089 13.8719C69.3089 22.8965 71.4166 29.5829 73.2356 34.2022H56.7348C58.5393 29.5687 60.6615 22.8822 60.6615 13.8719C60.6615 7.18545 57.1967 0 49.5888 0C46.2106 0 42.8614 0.812639 39.6132 1.59676C36.3939 2.38089 33.3622 3.10799 30.3306 3.10799C27.2989 3.10799 24.2673 2.36663 21.0479 1.59676C17.8142 0.812639 14.4649 0 11.0724 0C3.46438 0 -0.000366211 7.19971 -0.000366211 13.8719C-0.000366211 22.8965 2.10735 29.5829 3.92634 34.2022H1.44328C0.649273 34.2022 -0.000366211 34.8437 -0.000366211 35.6278C-0.000366211 36.412 0.649273 37.0535 1.44328 37.0535H5.06682C5.78864 38.7786 6.40941 40.2756 6.40941 40.9457C6.40941 41.5872 6.22173 42.9274 6.01962 44.4813C5.24006 50.2126 3.92634 59.7932 6.49603 67.2495C8.58931 73.3372 13.4977 77.5857 17.6698 76.9014C19.0124 76.6876 22.1451 75.5613 22.1451 69.9013C22.1451 58.7524 22.7659 49.5283 30.3306 49.5283C37.8952 49.5283 38.516 58.7524 38.516 69.9013C38.516 75.5613 41.6487 76.6733 42.9913 76.9014C47.5677 77.4717 51.9996 73.2374 54.1651 67.2495C56.7203 59.7932 55.4211 50.2126 54.6415 44.4813C54.425 42.9274 54.2517 41.5872 54.2517 40.9457C54.2517 40.2756 54.8725 38.7786 55.5943 37.0535H74.405C75.1268 38.7786 75.7476 40.2756 75.7476 40.9457C75.7476 41.5872 75.5599 42.9274 75.3578 44.4813C74.5782 50.2126 73.2645 59.7932 75.8342 67.2495C77.9275 73.3372 82.8358 77.5857 87.008 76.9014C88.3505 76.6876 91.4833 75.5613 91.4833 69.9013C91.4833 58.7524 92.104 49.5283 99.6687 49.5283C107.233 49.5283 107.854 58.7524 107.854 69.9013C108.114 76.1315 110.915 76.7731 113.225 76.9727C117.18 76.9727 121.554 72.9095 123.503 67.2495C126.058 59.7932 124.759 50.2126 123.98 44.4813C123.763 42.9274 123.59 41.5872 123.59 40.9457C123.59 40.2756 124.211 38.7786 124.932 37.0535H128.556C129.35 37.0535 130 36.412 130 35.6278C130 34.8437 129.35 34.2022 128.556 34.2022H128.527ZM72.2251 13.8719C72.2251 8.55411 74.7803 2.85137 80.4105 2.85137C83.4422 2.85137 86.4738 3.59272 89.6931 4.36259C92.9269 5.14672 96.2762 5.95936 99.6543 5.95936C103.032 5.95936 106.382 5.14672 109.615 4.36259C112.835 3.57847 115.866 2.85137 118.898 2.85137C124.514 2.85137 127.083 8.56837 127.083 13.8719C127.083 23.0533 124.759 29.7683 122.955 34.2022H109.76V31.3508C109.76 30.5667 109.11 29.9251 108.316 29.9251H90.9924C90.1984 29.9251 89.5488 30.5667 89.5488 31.3508V34.2022H76.3539C74.5638 29.754 72.2251 23.0391 72.2251 13.8719ZM106.872 32.7765V38.4792H92.4361V32.7765H106.872ZM2.93023 13.8577C2.93023 8.53985 5.48548 2.83711 11.1157 2.83711C14.1473 2.83711 17.179 3.57847 20.3983 4.34834C23.6321 5.13246 26.9813 5.9451 30.3594 5.9451C33.7376 5.9451 37.0868 5.13246 40.3206 4.34834C43.5399 3.56421 46.5715 2.83711 49.6032 2.83711C55.219 2.83711 57.7886 8.5541 57.7886 13.8577C57.7886 23.0391 55.4644 29.754 53.6598 34.1879H40.4649V31.3365C40.4649 30.5524 39.8153 29.9109 39.0213 29.9109H21.6976C20.9036 29.9109 20.2539 30.5524 20.2539 31.3365V34.1879H7.05905C5.26893 29.7398 2.93023 23.0248 2.93023 13.8577ZM37.5776 32.7622V38.465H23.1412V32.7622H37.5776ZM51.7975 44.852C52.5482 50.3267 53.8042 59.4938 51.451 66.3228C49.5599 71.8402 45.5321 74.4065 43.4821 74.0786C41.692 73.7934 41.4322 71.327 41.4322 69.9013C41.4322 60.6486 41.4322 46.6769 30.3594 46.6769C19.2867 46.6769 19.2867 60.6486 19.2867 69.9013C19.2867 71.3412 19.0268 73.7934 17.2367 74.0786C15.1868 74.4065 11.159 71.8402 9.26782 66.3228C6.92912 59.4938 8.17065 50.3267 8.92134 44.852C9.16676 43.0557 9.34 41.7725 9.34 40.9457C9.34 39.9192 8.90691 38.7073 8.2284 37.0535H20.2539V39.9049C20.2539 40.689 20.9036 41.3306 21.6976 41.3306H39.0213C39.8153 41.3306 40.4649 40.689 40.4649 39.9049V37.0535H52.4905C51.812 38.7073 51.3789 39.9192 51.3789 40.9457C51.3789 41.7725 51.5521 43.0699 51.7975 44.852ZM121.092 44.852C121.843 50.3267 123.099 59.4938 120.746 66.3228C118.855 71.8402 114.841 74.4065 112.777 74.0786C110.987 73.7934 110.727 71.327 110.727 69.9013C110.727 60.6486 110.727 46.6769 99.6543 46.6769C88.5815 46.6769 88.5815 60.6486 88.5815 69.9013C88.5815 71.3412 88.3217 73.7934 86.5316 74.0786C84.4672 74.4065 80.4538 71.8402 78.5627 66.3228C76.224 59.4938 77.4655 50.3267 78.2162 44.852C78.4616 43.0557 78.6348 41.7725 78.6348 40.9457C78.6348 39.9192 78.2017 38.7073 77.5232 37.0535H89.5488V39.9049C89.5488 40.689 90.1984 41.3306 90.9924 41.3306H108.316C109.11 41.3306 109.76 40.689 109.76 39.9049V37.0535H121.785C121.107 38.7073 120.674 39.9192 120.674 40.9457C120.674 41.7725 120.847 43.0699 121.092 44.852Z" fill="#BAD980"/>
</svg>
